# xmcd
#
# Track frame offsets:
#	150
#	13232
#	28731
#	41987
#	57257
#	72756
#	89948
#	103288
#	116398
#	126798
#	138592
#	153638
#	171959
#	186727
#
# Disc length: 2641 seconds
#
# Revision: 0
# Processed by: cddbd v1.4PL0 Copyright (c) Steve Scherf et al.
# Submitted via: dBpowerAMP V4.0
#
DISCID=db0a4f0e
DTITLE=Preston Smith - Christmas Blues and other standards
DYEAR=1992
DGENRE=Blues
TTITLE0=Santa Claus Is Coming To Town
TTITLE1=Christmas Blues
TTITLE2=The Christmas Song
TTITLE3=Blue Christmas
TTITLE4=White Christmas
TTITLE5=Christmas Time Is Here
TTITLE6=Merry Christmas Baby (Slow)
TTITLE7=Santa Claus Is Back In Town
TTITLE8=The Christmas Waltz
TTITLE9=Merry Christmas Baby (Shuffle)
TTITLE10=I'll Be Home For Christmas
TTITLE11=Why Can't Christmas Be Eternally
TTITLE12=Amazing Grace
TTITLE13=Silent Night
EXTD=
EXTT0=
EXTT1=
EXTT2=
EXTT3=
EXTT4=
EXTT5=
EXTT6=
EXTT7=
EXTT8=
EXTT9=
EXTT10=
EXTT11=
EXTT12=
EXTT13=
PLAYORDER=
